# xmcd
#
# Track frame offsets:
#	150
#	13335
#	27602
#	41217
#	59832
#	75425
#	87737
#	102085
#	116662
#	134367
#	151507
#	164812
#	181542
#	193650
#	209117
#	225112
#	239207
#	256037
#
# Disc length: 3598
#
# Revision: 1
# Processed by: cddbd v1.5.1PL0 Copyright (c) Steve Scherf et al.
# Submitted via: VisiTrax 2.9.5.180 - For more info visit www.synapsa.com
# Normalized: r0:DSETVAR1
#
DISCID=fc0e0c12
DTITLE=Various Artist - CDX 222 September 1999
DYEAR=1999
DGENRE=
TTITLE0=Chad Austin - All my dreams
TTITLE1=LeAnn Rimes - Big deal
TTITLE2=Shania Twain - Come on over
TTITLE3=Trace Adkins - Don't lie
TTITLE4=Jack Ingram - How many days
TTITLE5=Alecia Elliot - I'm diggin' it
TTITLE6=Linda Davis - I took the tourch out of his old flame
TTITLE7=Claudia Church - It's all your fault
TTITLE8=Chely Wright - It was
TTITLE9=Lesley McDaniel - I was over you last night
TTITLE10=Shana Petrone - Something real
TTITLE11=Chris LeDoux - Stampede
TTITLE12=Merle Haggard/Jewel - That's the way loves goes
TTITLE13=Wes McClelland - The seven wonders of my world
TTITLE14=Reba McEntire - What do you say
TTITLE15=Toby Keith - When love fades
TTITLE16=Mary Chapin Carpenter - Wherever you are
TTITLE17=Bellamy Brothers/Buck Owens - The ex-files
EXTD=
EXTT0=
EXTT1=
EXTT2=
EXTT3=
EXTT4=
EXTT5=
EXTT6=
EXTT7=
EXTT8=
EXTT9=
EXTT10=
EXTT11=
EXTT12=
EXTT13=
EXTT14=
EXTT15=
EXTT16=
EXTT17=
PLAYORDER=
